<svg width="144" height="38" viewBox="0 0 144 38" fill="none" xmlns="http://www.w3.org/2000/svg">
<path d="M114.442 24.3053C113.432 24.0526 113.179 23.5474 113.053 22.5369C112.8 20.8947 112.8 16.8527 113.053 15.0842C113.179 14.2 113.684 13.6947 114.442 13.4421C115.326 13.1895 123.411 13.0632 124.295 13.4421C125.053 13.6947 125.305 14.2 125.432 14.9579C125.811 16.6 125.811 20.7684 125.432 22.4105C125.305 23.1684 125.053 23.5474 124.295 23.9263C123.537 24.5579 115.579 24.5579 114.442 24.3053ZM126.947 7.88422C124.547 7.37895 115.326 7.25264 111.663 7.88422C108.884 8.38948 106.737 10.4105 106.105 12.9368C105.6 15.8421 105.6 22.2842 106.105 24.9368C106.611 27.3368 108.632 29.4842 111.663 29.9895C114.821 30.6211 124.168 30.4947 127.074 29.8632C130.484 29.1053 131.874 26.579 132.253 24.9368C132.758 22.4105 132.758 15.9684 132.253 12.9368C131.621 10.2842 129.347 8.38948 126.947 7.88422ZM95.2421 8.01054H102.189V29.8632H95.2421V8.01054ZM84.1263 21.5263C85.2632 21.7789 85.5158 22.6631 85.5158 23.421C85.5158 24.1789 85.3895 25.0632 84.1263 25.1895C82.7369 25.4421 78.0632 25.4421 76.2947 25.1895C75.5368 25.0632 74.6526 25.0632 74.4 23.6737V23.2948H67.4526C67.4526 23.4211 67.4526 23.8 67.579 24.3053C67.8316 27.2105 68.9685 29.2316 72.2527 29.8632C74.9053 30.3684 84.8842 30.4947 87.9158 29.8632C91.4527 29.1053 92.3369 25.9474 92.3369 23.1684C92.3369 20.0105 91.2 17.8632 88.4211 16.979C87.6632 16.7263 85.8947 16.6 85.1368 16.6C84.5053 16.6 77.0527 16.3474 75.4106 16.0947C74.4 15.9684 74.1474 15.3369 74.1474 14.4527C74.1474 13.5684 74.2737 12.9368 75.5368 12.6842C77.0526 12.4316 82.9895 12.4316 83.6211 12.6842C84.379 12.9368 84.6316 13.4421 84.6316 14.0737V14.5789H91.579C91.579 14.0737 91.4526 13.6947 91.4526 13.3158C91.0737 9.90525 89.179 8.01052 85.7684 7.75789C82.3579 7.37895 74.5263 7.50527 72.1263 7.88422C69.8527 8.38948 67.579 9.77897 67.579 14.4527C67.579 18.2421 69.3474 20.1369 72.3789 20.7684C73.2632 20.8948 75.7895 21.021 76.1684 21.021C77.0526 21.1474 83.6211 21.4 84.1263 21.5263ZM56.7158 21.4H49.0105L52.2947 12.6842H53.4316L56.7158 21.4ZM58.2316 25.9474L59.7474 29.8632H67.2L57.8526 7.88422H47.7474L38.5263 29.8632H45.979L47.4948 25.8211L58.2316 25.9474ZM18.5685 22.6632C18.6948 23.9263 19.3263 24.179 19.9579 24.3053C20.9684 24.5579 28.1684 24.5579 29.4316 24.3053C30.3158 24.179 30.9474 23.5474 31.0737 22.7895C31.0737 22.4105 31.2 21.7789 31.2 21.5263H38.4C38.4 22.0316 38.4 23.2947 38.2737 24.4316C37.8947 27.0842 36.379 29.2316 33.0948 29.9895C30.8211 30.4947 19.8316 30.4947 17.3053 29.9895C14.6527 29.3579 12.3789 27.7158 11.7474 24.9368C11.2421 22.4105 11.2421 15.8421 11.7474 13.0632C12.1263 11.0421 14.0211 8.64212 17.179 8.01054C20.0842 7.50528 30.3158 7.37896 33.0948 8.01054C36.7579 8.89475 37.8948 12.1789 38.0211 13.3158C38.1474 14.5789 38.1474 15.4632 38.1474 15.9684H30.9474C30.9474 15.4632 31.0737 14.0737 29.8106 13.6947C29.0527 13.4421 21.979 13.4421 20.2105 13.5684C19.3263 13.6947 18.8211 14.0737 18.6947 14.9579C18.3158 16.7263 18.3158 21.0211 18.5685 22.6632Z" fill="#003296"/>
</svg>
