<svg width="15" height="15" viewBox="0 0 15 15" fill="none" xmlns="http://www.w3.org/2000/svg">
<g clip-path="url(#clip0_2_108)">
<path d="M12.2538 2.74606C10.9844 1.47647 9.29606 0.7771 7.50043 0.7771C3.79335 0.7771 0.777308 3.79314 0.7771 7.50002C0.777308 11.2069 3.79335 14.2229 7.50043 14.2229C9.29606 14.2229 10.9844 13.5236 12.2538 12.2536C13.524 10.984 14.2231 9.29564 14.2229 7.50002C14.2231 5.70439 13.5238 4.01606 12.2538 2.74606ZM11.219 9.99002C11.3892 9.32627 11.4938 8.60793 11.5188 7.85564H13.3779C13.316 8.93147 12.9572 9.96909 12.3413 10.8533C12.1052 10.5258 11.7196 10.2327 11.219 9.99002ZM8.65189 13.2773C8.35476 13.3356 8.0536 13.3711 7.75106 13.3833V9.68564C8.89043 9.71189 9.93585 9.91481 10.7261 10.2269C10.3023 11.6533 9.5571 12.7606 8.65189 13.2773ZM4.27439 10.2267C5.08418 9.90689 6.16231 9.7021 7.33439 9.68439V13.3852C7.00188 13.3764 6.6707 13.3396 6.34439 13.275C5.44106 12.7569 4.69752 11.6508 4.27439 10.2267ZM2.66064 10.8506C2.04558 9.96685 1.68629 8.93049 1.62231 7.85564H3.48168C3.50689 8.60772 3.61147 9.32627 3.78168 9.98981C3.2821 10.2319 2.89689 10.5242 2.66064 10.8506ZM1.61189 7.43897C1.62229 6.31299 1.95728 5.21392 2.57668 4.27356C2.79189 4.63939 3.19002 4.96731 3.72647 5.23564C3.56856 5.92314 3.48064 6.66522 3.47627 7.43897H1.61189ZM3.89856 7.85564H4.44168C4.49694 7.85564 4.54993 7.83369 4.589 7.79462C4.62807 7.75555 4.65002 7.70256 4.65002 7.64731C4.65002 7.59205 4.62807 7.53906 4.589 7.49999C4.54993 7.46092 4.49694 7.43897 4.44168 7.43897H3.89293C3.8971 6.72647 3.97335 6.04252 4.11085 5.40793C4.96835 5.75377 6.08835 5.96689 7.3346 5.98439V7.43897H5.48335C5.4281 7.43897 5.37511 7.46092 5.33604 7.49999C5.29697 7.53906 5.27502 7.59205 5.27502 7.64731C5.27502 7.70256 5.29697 7.75555 5.33604 7.79462C5.37511 7.83369 5.4281 7.85564 5.48335 7.85564H7.33439V9.26772C6.11418 9.28481 5.01502 9.48918 4.1646 9.82272C4.00887 9.17786 3.91972 8.51871 3.89856 7.85564ZM6.34418 1.72502C6.67053 1.66022 7.00179 1.62328 7.33439 1.6146V5.56772C6.13147 5.5496 5.02689 5.3346 4.21022 5.00022C4.61981 3.46731 5.39335 2.27022 6.34418 1.72502ZM10.79 5.00022C9.99293 5.32668 8.92085 5.5396 7.75106 5.56647V1.61647C8.05627 1.62918 8.35731 1.66418 8.6521 1.72252C9.60481 2.26647 10.3798 3.46481 10.79 5.00022ZM7.75106 5.98335C8.96314 5.95752 10.0517 5.74606 10.8896 5.40793C11.0271 6.04252 11.1031 6.72647 11.1075 7.43897H7.75106V5.98335ZM7.75106 9.26877V7.85564H11.1019C11.0806 8.51877 10.9915 9.17797 10.8358 9.82293C10.005 9.49731 8.93731 9.29397 7.75106 9.26877ZM11.524 7.43897C11.5196 6.66522 11.4319 5.92314 11.274 5.23564C11.8121 4.96627 12.2111 4.6371 12.4258 4.2696C13.0415 5.20418 13.3765 6.29564 13.3879 7.43877H11.524V7.43897ZM12.1486 3.88481C12.0356 4.23397 11.6856 4.55731 11.169 4.82522C10.8479 3.67647 10.3273 2.70502 9.67877 2.02627C10.6531 2.4143 11.5059 3.05601 12.1486 3.88481ZM5.31668 2.03189C4.67043 2.71022 4.15189 3.6796 3.83168 4.82522C3.31668 4.55814 2.96731 4.23627 2.85314 3.88835C3.49577 3.06263 4.34583 2.42205 5.31668 2.03189ZM2.92377 11.2017C3.08877 10.9019 3.42814 10.6256 3.89564 10.3936C4.21897 11.444 4.7121 12.3333 5.31668 12.9679C4.38164 12.5926 3.55797 11.9846 2.92377 11.2017ZM9.67856 12.9736C10.2856 12.3384 10.7806 11.4471 11.1048 10.3938C11.5736 10.6265 11.9138 10.9038 12.0781 11.2048C11.9488 11.3638 11.8113 11.5173 11.6644 11.6642C11.0987 12.2315 10.4229 12.6771 9.67856 12.9736Z" fill="black"/>
</g>
<defs>
<clipPath id="clip0_2_108">
<rect width="15" height="15" fill="white"/>
</clipPath>
</defs>
</svg>
