<svg width="22" height="24" viewBox="0 0 22 24" fill="none" xmlns="http://www.w3.org/2000/svg">
<path d="M21 19.5L15.5 14C16.3 12.8 16.7 11.4 16.7 9.80002C16.7 5.50002 13.2 2 8.89996 2C4.59996 2 1.09998 5.50002 1.09998 9.80002C1.09998 14.1 4.59996 17.6 8.89996 17.6C10.4 17.6 11.8 17.1 13.1 16.4L18.6 21.9L21 19.5ZM3.49997 9.80002C3.49997 6.90002 5.99996 4.40002 8.89996 4.40002C11.8 4.40002 14.3 6.90002 14.3 9.80002C14.3 12.7 11.8 15.2 8.89996 15.2C5.99996 15.1 3.49997 12.7 3.49997 9.80002Z" fill="#003296"/>
</svg>
